<svg width="46" height="47" viewBox="0 0 46 47" fill="none" xmlns="http://www.w3.org/2000/svg">
<g clip-path="url(#clip0_3755_2742)">
<rect y="0.71167" width="46" height="46" rx="23" fill="white"/>
<g filter="url(#filter0_f_3755_2742)">
<circle cx="23" cy="23.7117" r="16.5" fill="#FCD64A" fill-opacity="0.7"/>
</g>
<path d="M30.7097 18.5717C29.6697 16.4717 27.6597 14.9217 25.3297 14.4117C22.8897 13.8717 20.3897 14.4517 18.4797 15.9917C16.5597 17.5217 15.4697 19.8117 15.4697 22.2617C15.4697 24.8517 17.0197 27.5617 19.3597 29.1317V29.9617C19.3497 30.2417 19.3397 30.6717 19.6797 31.0217C20.0297 31.3817 20.5497 31.4217 20.9597 31.4217H26.0897C26.6297 31.4217 27.0397 31.2717 27.3197 30.9917C27.6997 30.6017 27.6897 30.1017 27.6797 29.8317V29.1317C30.7797 27.0417 32.7297 22.6317 30.7097 18.5717Z" fill="#FBCB18"/>
<path d="M26.7602 34.2116C26.7002 34.2116 26.6302 34.2016 26.5702 34.1816C24.5602 33.6116 22.4502 33.6116 20.4402 34.1816C20.0702 34.2816 19.6802 34.0716 19.5802 33.7016C19.4702 33.3316 19.6902 32.9416 20.0602 32.8416C22.3202 32.2016 24.7002 32.2016 26.9602 32.8416C27.3302 32.9516 27.5502 33.3316 27.4402 33.7016C27.3402 34.0116 27.0602 34.2116 26.7602 34.2116Z" fill="#FBCB18"/>
</g>
<defs>
<filter id="filter0_f_3755_2742" x="-27.5" y="-26.7883" width="101" height="101" filterUnits="userSpaceOnUse" color-interpolation-filters="sRGB">
<feFlood flood-opacity="0" result="BackgroundImageFix"/>
<feBlend mode="normal" in="SourceGraphic" in2="BackgroundImageFix" result="shape"/>
<feGaussianBlur stdDeviation="17" result="effect1_foregroundBlur_3755_2742"/>
</filter>
<clipPath id="clip0_3755_2742">
<rect y="0.71167" width="46" height="46" rx="23" fill="white"/>
</clipPath>
</defs>
</svg>
