<svg width="32" height="33" viewBox="0 0 32 33" fill="none" xmlns="http://www.w3.org/2000/svg">
<rect x="0.5" y="1.21167" width="31" height="31" rx="15.5" fill="#42B87E"/>
<rect x="0.5" y="1.21167" width="31" height="31" rx="15.5" stroke="#C8C8C8"/>
<path d="M7.525 17.5417V16.0417H10.48V12.9967H12.04V16.0417H15.01V17.5417H12.04V20.5867H10.48V17.5417H7.525ZM19.815 21.9367C18.515 21.9367 17.52 21.6067 16.83 20.9467C16.14 20.2767 15.785 19.3667 15.765 18.2167H17.715C17.795 19.6067 18.47 20.3017 19.74 20.3017C20.31 20.3017 20.755 20.1567 21.075 19.8667C21.395 19.5667 21.555 19.1567 21.555 18.6367C21.555 18.1367 21.395 17.7467 21.075 17.4667C20.755 17.1867 20.285 17.0467 19.665 17.0467H19.035V15.5017H19.62C20.12 15.5017 20.52 15.3817 20.82 15.1417C21.13 14.9017 21.285 14.5667 21.285 14.1367C21.285 13.7267 21.155 13.4017 20.895 13.1617C20.635 12.9117 20.28 12.7867 19.83 12.7867C19.27 12.7867 18.835 12.9517 18.525 13.2817C18.225 13.6117 18.065 14.0567 18.045 14.6167H16.095C16.135 13.5767 16.475 12.7517 17.115 12.1417C17.755 11.5317 18.66 11.2267 19.83 11.2267C20.91 11.2267 21.765 11.4767 22.395 11.9767C23.035 12.4767 23.355 13.1517 23.355 14.0017C23.355 15.0617 22.77 15.7817 21.6 16.1617V16.1917C22.99 16.5317 23.685 17.3917 23.685 18.7717C23.685 19.7917 23.32 20.5767 22.59 21.1267C21.86 21.6667 20.935 21.9367 19.815 21.9367Z" fill="#070707"/>
</svg>
