<svg width="29" height="30" viewBox="0 0 29 30" fill="none" xmlns="http://www.w3.org/2000/svg">
<rect y="0.71167" width="29" height="29" rx="14.5" fill="#C27ED2"/>
<path d="M19.1948 12.7117C20.5755 12.7117 21.6948 11.5924 21.6948 10.2117C21.6948 8.83096 20.5755 7.71167 19.1948 7.71167C17.8141 7.71167 16.6948 8.83096 16.6948 10.2117C16.6948 11.5924 17.8141 12.7117 19.1948 12.7117Z" stroke="#070707" stroke-width="1.5" stroke-miterlimit="10" stroke-linecap="round" stroke-linejoin="round"/>
<path d="M9.50001 12.7117C10.8807 12.7117 12 11.5924 12 10.2117C12 8.83096 10.8807 7.71167 9.50001 7.71167C8.11929 7.71167 7 8.83096 7 10.2117C7 11.5924 8.11929 12.7117 9.50001 12.7117Z" stroke="#070707" stroke-width="1.5" stroke-miterlimit="10" stroke-linecap="round" stroke-linejoin="round"/>
<path d="M19.1948 22.7117C20.5755 22.7117 21.6948 21.5924 21.6948 20.2117C21.6948 18.831 20.5755 17.7117 19.1948 17.7117C17.8141 17.7117 16.6948 18.831 16.6948 20.2117C16.6948 21.5924 17.8141 22.7117 19.1948 22.7117Z" stroke="#070707" stroke-width="1.5" stroke-miterlimit="10" stroke-linecap="round" stroke-linejoin="round"/>
<path d="M9.50001 22.7117C10.8807 22.7117 12 21.5924 12 20.2117C12 18.831 10.8807 17.7117 9.50001 17.7117C8.11929 17.7117 7 18.831 7 20.2117C7 21.5924 8.11929 22.7117 9.50001 22.7117Z" stroke="#070707" stroke-width="1.5" stroke-miterlimit="10" stroke-linecap="round" stroke-linejoin="round"/>
</svg>
