<svg width="16" height="17" viewBox="0 0 16 17" fill="none" xmlns="http://www.w3.org/2000/svg">
<path d="M6.10622 7.95825C6.08622 7.95825 6.07288 7.95825 6.05288 7.95825C6.01955 7.95159 5.97288 7.95159 5.93288 7.95825C3.99955 7.89825 2.53955 6.37825 2.53955 4.50492C2.53955 2.59826 4.09288 1.04492 5.99955 1.04492C7.90622 1.04492 9.45955 2.59826 9.45955 4.50492C9.45288 6.37825 7.98622 7.89825 6.12622 7.95825C6.11955 7.95825 6.11288 7.95825 6.10622 7.95825ZM5.99955 2.04492C4.64622 2.04492 3.53955 3.15159 3.53955 4.50492C3.53955 5.83825 4.57955 6.91159 5.90622 6.95825C5.94622 6.95159 6.03288 6.95159 6.11955 6.95825C7.42622 6.89825 8.45288 5.82492 8.45955 4.50492C8.45955 3.15159 7.35288 2.04492 5.99955 2.04492Z" fill="#787486"/>
<path d="M11.0266 8.04508C11.0066 8.04508 10.9866 8.04508 10.9666 8.03842C10.6932 8.06508 10.4132 7.87175 10.3866 7.59842C10.3599 7.32508 10.5266 7.07842 10.7999 7.04508C10.8799 7.03842 10.9666 7.03842 11.0399 7.03842C12.0132 6.98508 12.7732 6.18508 12.7732 5.20508C12.7732 4.19175 11.9532 3.37175 10.9399 3.37175C10.6666 3.37842 10.4399 3.15175 10.4399 2.87842C10.4399 2.60508 10.6666 2.37842 10.9399 2.37842C12.4999 2.37842 13.7732 3.65175 13.7732 5.21175C13.7732 6.74508 12.5732 7.98509 11.0466 8.04508C11.0399 8.04508 11.0332 8.04508 11.0266 8.04508Z" fill="#787486"/>
<path d="M6.11307 15.2451C4.80641 15.2451 3.49307 14.9118 2.49974 14.2451C1.57307 13.6318 1.06641 12.7918 1.06641 11.8784C1.06641 10.9651 1.57307 10.1184 2.49974 9.49842C4.49974 8.17175 7.73974 8.17175 9.72641 9.49842C10.6464 10.1118 11.1597 10.9518 11.1597 11.8651C11.1597 12.7784 10.6531 13.6251 9.72641 14.2451C8.72641 14.9118 7.41974 15.2451 6.11307 15.2451ZM3.05307 10.3384C2.41307 10.7651 2.06641 11.3118 2.06641 11.8851C2.06641 12.4518 2.41974 12.9984 3.05307 13.4184C4.71307 14.5318 7.51307 14.5318 9.17307 13.4184C9.81307 12.9918 10.1597 12.4451 10.1597 11.8718C10.1597 11.3051 9.80641 10.7584 9.17307 10.3384C7.51307 9.23175 4.71307 9.23175 3.05307 10.3384Z" fill="#787486"/>
<path d="M12.2263 14.045C11.993 14.045 11.7863 13.885 11.7396 13.645C11.6863 13.3717 11.8596 13.1117 12.1263 13.0517C12.5463 12.965 12.933 12.7983 13.233 12.565C13.613 12.2783 13.8196 11.9183 13.8196 11.5383C13.8196 11.1583 13.613 10.7983 13.2396 10.5183C12.9463 10.2917 12.5796 10.1317 12.1463 10.0317C11.8796 9.97168 11.7063 9.70502 11.7663 9.43168C11.8263 9.16502 12.093 8.99168 12.3663 9.05168C12.9396 9.17835 13.4396 9.40502 13.8463 9.71835C14.4663 10.185 14.8196 10.845 14.8196 11.5383C14.8196 12.2317 14.4596 12.8917 13.8396 13.365C13.4263 13.685 12.9063 13.9183 12.333 14.0317C12.293 14.045 12.2596 14.045 12.2263 14.045Z" fill="#787486"/>
</svg>
