<svg width="16" height="17" viewBox="0 0 16 17" fill="none" xmlns="http://www.w3.org/2000/svg">
<path d="M14.3333 8.04492V12.0449C14.3333 14.7116 13.6667 15.3783 11 15.3783H4.33333C1.66667 15.3783 1 14.7116 1 12.0449V5.37826C1 2.71159 1.66667 2.04492 4.33333 2.04492H5.33333C6.33333 2.04492 6.55333 2.33826 6.93333 2.84492L7.93333 4.17826C8.18667 4.51159 8.33333 4.71159 9 4.71159H11C13.6667 4.71159 14.3333 5.37826 14.3333 8.04492Z" stroke="#787486" stroke-miterlimit="10"/>
<path d="M5.33301 2.04492H11.333C12.6663 2.04492 13.333 2.71159 13.333 4.04492V4.96492" stroke="#787486" stroke-miterlimit="10" stroke-linecap="round" stroke-linejoin="round"/>
<path d="M9.33333 10.7117H6" stroke="#787486" stroke-miterlimit="10" stroke-linecap="round" stroke-linejoin="round"/>
</svg>
