<svg width="20" height="21" viewBox="0 0 20 21" fill="none" xmlns="http://www.w3.org/2000/svg">
<path d="M15.925 11.3367L4.075 11.3367C2.95 11.3367 2.5 11.8117 2.5 13.0117L2.5 16.0367C2.5 17.2367 2.95 17.7117 4.075 17.7117L15.925 17.7117C17.05 17.7117 17.5 17.2367 17.5 16.0367L17.5 13.0117C17.5 11.8117 17.05 11.3367 15.925 11.3367Z" fill="#787486"/>
<path d="M15.925 2.71167L4.075 2.71167C2.95 2.71167 2.5 3.18667 2.5 4.38667L2.5 7.41167C2.5 8.60334 2.95 9.08667 4.075 9.08667L15.925 9.08667C17.05 9.08667 17.5 8.61167 17.5 7.41167L17.5 4.38667C17.5 3.18667 17.05 2.71167 15.925 2.71167Z" fill="#787486"/>
</svg>
