<svg width="24" height="25" viewBox="0 0 24 25" fill="none" xmlns="http://www.w3.org/2000/svg">
<path d="M20.83 8.72169L14.28 3.48169C13 2.46169 11 2.45169 9.72996 3.47169L3.17996 8.72169C2.23996 9.47169 1.66996 10.9717 1.86996 12.1517L3.12996 19.6917C3.41996 21.3817 4.98996 22.7117 6.69996 22.7117H17.3C18.99 22.7117 20.59 21.3517 20.88 19.6817L22.14 12.1417C22.32 10.9717 21.75 9.47169 20.83 8.72169ZM12.75 18.7117C12.75 19.1217 12.41 19.4617 12 19.4617C11.59 19.4617 11.25 19.1217 11.25 18.7117V15.7117C11.25 15.3017 11.59 14.9617 12 14.9617C12.41 14.9617 12.75 15.3017 12.75 15.7117V18.7117Z" fill="#A1A1A1"/>
</svg>
