<svg width="21" height="22" viewBox="0 0 21 22" fill="none" xmlns="http://www.w3.org/2000/svg">
<path d="M15.1948 8.71167C16.5755 8.71167 17.6948 7.59238 17.6948 6.21167C17.6948 4.83096 16.5755 3.71167 15.1948 3.71167C13.8141 3.71167 12.6948 4.83096 12.6948 6.21167C12.6948 7.59238 13.8141 8.71167 15.1948 8.71167Z" stroke="#070707" stroke-width="1.5" stroke-miterlimit="10" stroke-linecap="round" stroke-linejoin="round"/>
<path d="M5.50001 8.71167C6.88072 8.71167 8 7.59238 8 6.21167C8 4.83096 6.88072 3.71167 5.50001 3.71167C4.11929 3.71167 3 4.83096 3 6.21167C3 7.59238 4.11929 8.71167 5.50001 8.71167Z" stroke="#070707" stroke-width="1.5" stroke-miterlimit="10" stroke-linecap="round" stroke-linejoin="round"/>
<path d="M15.1948 18.7117C16.5755 18.7117 17.6948 17.5924 17.6948 16.2117C17.6948 14.831 16.5755 13.7117 15.1948 13.7117C13.8141 13.7117 12.6948 14.831 12.6948 16.2117C12.6948 17.5924 13.8141 18.7117 15.1948 18.7117Z" stroke="#070707" stroke-width="1.5" stroke-miterlimit="10" stroke-linecap="round" stroke-linejoin="round"/>
<path d="M5.50001 18.7117C6.88072 18.7117 8 17.5924 8 16.2117C8 14.831 6.88072 13.7117 5.50001 13.7117C4.11929 13.7117 3 14.831 3 16.2117C3 17.5924 4.11929 18.7117 5.50001 18.7117Z" stroke="#070707" stroke-width="1.5" stroke-miterlimit="10" stroke-linecap="round" stroke-linejoin="round"/>
</svg>
