<svg width="24" height="25" viewBox="0 0 24 25" fill="none" xmlns="http://www.w3.org/2000/svg">
<path d="M17 2.71167H7C4.24 2.71167 2 4.94167 2 7.69167V13.6717V14.6717C2 17.4217 4.24 19.6517 7 19.6517H8.5C8.77 19.6517 9.13 19.8317 9.3 20.0517L10.8 22.0417C11.46 22.9217 12.54 22.9217 13.2 22.0417L14.7 20.0517C14.89 19.8017 15.19 19.6517 15.5 19.6517H17C19.76 19.6517 22 17.4217 22 14.6717V7.69167C22 4.94167 19.76 2.71167 17 2.71167ZM8 12.7117C7.44 12.7117 7 12.2617 7 11.7117C7 11.1617 7.45 10.7117 8 10.7117C8.55 10.7117 9 11.1617 9 11.7117C9 12.2617 8.56 12.7117 8 12.7117ZM12 12.7117C11.44 12.7117 11 12.2617 11 11.7117C11 11.1617 11.45 10.7117 12 10.7117C12.55 10.7117 13 11.1617 13 11.7117C13 12.2617 12.56 12.7117 12 12.7117ZM16 12.7117C15.44 12.7117 15 12.2617 15 11.7117C15 11.1617 15.45 10.7117 16 10.7117C16.55 10.7117 17 11.1617 17 11.7117C17 12.2617 16.56 12.7117 16 12.7117Z" fill="#A1A1A1"/>
</svg>
