<svg width="16" height="17" viewBox="0 0 16 17" fill="none" xmlns="http://www.w3.org/2000/svg">
<path d="M7.99967 15.9183C7.53967 15.9183 7.10634 15.6849 6.79967 15.2783L5.79967 13.9449C5.77967 13.9183 5.69967 13.8849 5.66634 13.8783H5.33301C2.55301 13.8783 0.833008 13.1249 0.833008 9.37826V6.04492C0.833008 3.09826 2.38634 1.54492 5.33301 1.54492H10.6663C13.613 1.54492 15.1663 3.09826 15.1663 6.04492V9.37826C15.1663 12.3249 13.613 13.8783 10.6663 13.8783H10.333C10.2797 13.8783 10.233 13.9049 10.1997 13.9449L9.19967 15.2783C8.89301 15.6849 8.45967 15.9183 7.99967 15.9183ZM5.33301 2.54492C2.94634 2.54492 1.83301 3.65826 1.83301 6.04492V9.37826C1.83301 12.3916 2.86634 12.8783 5.33301 12.8783H5.66634C6.00634 12.8783 6.39301 13.0716 6.59967 13.3449L7.59967 14.6783C7.83301 14.9849 8.16634 14.9849 8.39967 14.6783L9.39968 13.3449C9.61967 13.0516 9.96634 12.8783 10.333 12.8783H10.6663C13.053 12.8783 14.1663 11.7649 14.1663 9.37826V6.04492C14.1663 3.65826 13.053 2.54492 10.6663 2.54492H5.33301Z" fill="#787486"/>
<path d="M7.99967 8.71175C7.62634 8.71175 7.33301 8.41175 7.33301 8.04508C7.33301 7.67842 7.63301 7.37842 7.99967 7.37842C8.36634 7.37842 8.66634 7.67842 8.66634 8.04508C8.66634 8.41175 8.37301 8.71175 7.99967 8.71175Z" fill="#787486"/>
<path d="M10.6667 8.71175C10.2933 8.71175 10 8.41175 10 8.04508C10 7.67842 10.3 7.37842 10.6667 7.37842C11.0333 7.37842 11.3333 7.67842 11.3333 8.04508C11.3333 8.41175 11.04 8.71175 10.6667 8.71175Z" fill="#787486"/>
<path d="M5.33366 8.71175C4.96033 8.71175 4.66699 8.41175 4.66699 8.04508C4.66699 7.67842 4.96699 7.37842 5.33366 7.37842C5.70033 7.37842 6.00033 7.67842 6.00033 8.04508C6.00033 8.41175 5.70699 8.71175 5.33366 8.71175Z" fill="#787486"/>
</svg>
