<svg width="14" height="4" viewBox="0 0 14 4" fill="none" xmlns="http://www.w3.org/2000/svg">
<path d="M1.99967 3.37826C1.54134 3.37826 1.14898 3.21506 0.822591 2.88867C0.496202 2.56228 0.333008 2.16992 0.333008 1.71159C0.333008 1.25326 0.496202 0.860894 0.822591 0.534505C1.14898 0.208116 1.54134 0.0449219 1.99967 0.0449219C2.45801 0.0449219 2.85037 0.208116 3.17676 0.534505C3.50315 0.860894 3.66634 1.25326 3.66634 1.71159C3.66634 2.16992 3.50315 2.56228 3.17676 2.88867C2.85037 3.21506 2.45801 3.37826 1.99967 3.37826ZM6.99967 3.37826C6.54134 3.37826 6.14898 3.21506 5.82259 2.88867C5.4962 2.56228 5.33301 2.16992 5.33301 1.71159C5.33301 1.25326 5.4962 0.860894 5.82259 0.534505C6.14898 0.208116 6.54134 0.0449219 6.99967 0.0449219C7.45801 0.0449219 7.85037 0.208116 8.17676 0.534505C8.50315 0.860894 8.66634 1.25326 8.66634 1.71159C8.66634 2.16992 8.50315 2.56228 8.17676 2.88867C7.85037 3.21506 7.45801 3.37826 6.99967 3.37826ZM11.9997 3.37826C11.5413 3.37826 11.149 3.21506 10.8226 2.88867C10.4962 2.56228 10.333 2.16992 10.333 1.71159C10.333 1.25326 10.4962 0.860894 10.8226 0.534505C11.149 0.208116 11.5413 0.0449219 11.9997 0.0449219C12.458 0.0449219 12.8504 0.208116 13.1768 0.534505C13.5031 0.860894 13.6663 1.25326 13.6663 1.71159C13.6663 2.16992 13.5031 2.56228 13.1768 2.88867C12.8504 3.21506 12.458 3.37826 11.9997 3.37826Z" fill="#ACACAC"/>
</svg>
