<svg width="24" height="25" viewBox="0 0 24 25" fill="none" xmlns="http://www.w3.org/2000/svg">
<path d="M16 4.96167C16 6.20167 14.99 7.21167 13.75 7.21167H10.25C9.63 7.21167 9.07 6.96167 8.66 6.55167C8.25 6.14167 8 5.58167 8 4.96167C8 3.72167 9.01 2.71167 10.25 2.71167H13.75C14.37 2.71167 14.93 2.96167 15.34 3.37167C15.75 3.78167 16 4.34167 16 4.96167Z" fill="#A1A1A1"/>
<path d="M18.83 5.74163C18.6 5.55163 18.34 5.40163 18.06 5.29163C17.77 5.18163 17.48 5.41163 17.42 5.71163C17.08 7.42163 15.57 8.71163 13.75 8.71163H10.25C9.25 8.71163 8.31 8.32163 7.6 7.61163C7.08 7.09163 6.72 6.43163 6.58 5.72163C6.52 5.42163 6.22 5.18163 5.93 5.30163C4.77 5.77163 4 6.83163 4 8.96163V18.7116C4 21.7116 5.79 22.7116 8 22.7116H16C18.21 22.7116 20 21.7116 20 18.7116V8.96163C20 7.33163 19.55 6.33163 18.83 5.74163ZM8 12.9616H12C12.41 12.9616 12.75 13.3016 12.75 13.7116C12.75 14.1216 12.41 14.4616 12 14.4616H8C7.59 14.4616 7.25 14.1216 7.25 13.7116C7.25 13.3016 7.59 12.9616 8 12.9616ZM16 18.4616H8C7.59 18.4616 7.25 18.1216 7.25 17.7116C7.25 17.3016 7.59 16.9616 8 16.9616H16C16.41 16.9616 16.75 17.3016 16.75 17.7116C16.75 18.1216 16.41 18.4616 16 18.4616Z" fill="#A1A1A1"/>
</svg>
