<svg width="24" height="25" viewBox="0 0 24 25" fill="none" xmlns="http://www.w3.org/2000/svg">
<path d="M9 2.71167C6.38 2.71167 4.25 4.84167 4.25 7.46167C4.25 10.0317 6.26 12.1117 8.88 12.2017C8.96 12.1917 9.04 12.1917 9.1 12.2017C9.12 12.2017 9.13 12.2017 9.15 12.2017C9.16 12.2017 9.16 12.2017 9.17 12.2017C11.73 12.1117 13.74 10.0317 13.75 7.46167C13.75 4.84167 11.62 2.71167 9 2.71167Z" fill="#A1A1A1"/>
<path d="M14.08 14.8616C11.29 13.0016 6.73996 13.0016 3.92996 14.8616C2.65996 15.7116 1.95996 16.8616 1.95996 18.0916C1.95996 19.3216 2.65996 20.4616 3.91996 21.3016C5.31996 22.2416 7.15996 22.7116 8.99996 22.7116C10.84 22.7116 12.68 22.2416 14.08 21.3016C15.34 20.4516 16.04 19.3116 16.04 18.0716C16.03 16.8416 15.34 15.7016 14.08 14.8616Z" fill="#A1A1A1"/>
<path d="M19.9904 8.05177C20.1504 9.99177 18.7704 11.6918 16.8604 11.9218C16.8504 11.9218 16.8504 11.9218 16.8404 11.9218H16.8104C16.7504 11.9218 16.6904 11.9218 16.6404 11.9418C15.6704 11.9918 14.7804 11.6818 14.1104 11.1118C15.1404 10.1918 15.7304 8.81177 15.6104 7.31177C15.5404 6.50177 15.2604 5.76177 14.8404 5.13177C15.2204 4.94177 15.6604 4.82177 16.1104 4.78177C18.0704 4.61177 19.8204 6.07177 19.9904 8.05177Z" fill="#A1A1A1"/>
<path d="M21.9902 17.3016C21.9102 18.2716 21.2902 19.1116 20.2502 19.6816C19.2502 20.2316 17.9902 20.4916 16.7402 20.4616C17.4602 19.8116 17.8802 19.0016 17.9602 18.1416C18.0602 16.9016 17.4702 15.7116 16.2902 14.7616C15.6202 14.2316 14.8402 13.8116 13.9902 13.5016C16.2002 12.8616 18.9802 13.2916 20.6902 14.6716C21.6102 15.4116 22.0802 16.3416 21.9902 17.3016Z" fill="#A1A1A1"/>
</svg>
