<svg width="40" height="40" viewBox="0 0 40 40" fill="none" xmlns="http://www.w3.org/2000/svg">
<rect width="40" height="40" rx="20" fill="#C27ED2"/>
<path d="M9.54344 25V14.99H12.3994L13.8134 20.016C13.9161 20.3893 14.0188 20.8047 14.1214 21.262C14.2334 21.71 14.3174 22.0647 14.3734 22.326L14.4434 22.718H14.4714C14.6488 21.7567 14.8541 20.856 15.0874 20.016L16.5014 14.99H19.3994V25H17.5094V19.26L17.5934 17.188H17.5654C17.4161 17.972 17.2714 18.6067 17.1314 19.092L15.4094 25H13.4634L11.7834 19.092L11.3494 17.188H11.3214C11.3774 18.028 11.4054 18.7187 11.4054 19.26V25H9.54344ZM23.1578 25L20.2458 14.99H22.3178L23.6198 19.96L24.0538 22.144H24.0818C24.2498 21.3133 24.4038 20.604 24.5438 20.016L25.6358 14.99H27.5958L28.6878 20.002L29.1498 22.144H29.1778C29.3738 21.2573 29.5371 20.5247 29.6678 19.946L30.9278 14.99H32.9298L30.0738 25H28.1838L26.9658 19.638L26.6158 17.86H26.5878C26.4851 18.56 26.3778 19.1527 26.2658 19.638L25.0338 25H23.1578Z" fill="black"/>
</svg>
