<svg width="24" height="25" viewBox="0 0 24 25" fill="none" xmlns="http://www.w3.org/2000/svg">
<path d="M20.1 9.93161C18.29 9.93161 17.55 8.65161 18.45 7.08161C18.97 6.17161 18.66 5.01161 17.75 4.49161L16.02 3.50161C15.23 3.03161 14.21 3.31161 13.74 4.10161L13.63 4.29161C12.73 5.86161 11.25 5.86161 10.34 4.29161L10.23 4.10161C9.78 3.31161 8.76 3.03161 7.97 3.50161L6.24 4.49161C5.33 5.01161 5.02 6.18161 5.54 7.09161C6.45 8.65161 5.71 9.93161 3.9 9.93161C2.86 9.93161 2 10.7816 2 11.8316V13.5916C2 14.6316 2.85 15.4916 3.9 15.4916C5.71 15.4916 6.45 16.7716 5.54 18.3416C5.02 19.2516 5.33 20.4116 6.24 20.9316L7.97 21.9216C8.76 22.3916 9.78 22.1116 10.25 21.3216L10.36 21.1316C11.26 19.5616 12.74 19.5616 13.65 21.1316L13.76 21.3216C14.23 22.1116 15.25 22.3916 16.04 21.9216L17.77 20.9316C18.68 20.4116 18.99 19.2416 18.47 18.3416C17.56 16.7716 18.3 15.4916 20.11 15.4916C21.15 15.4916 22.01 14.6416 22.01 13.5916V11.8316C22 10.7916 21.15 9.93161 20.1 9.93161ZM12 15.9616C10.21 15.9616 8.75 14.5016 8.75 12.7116C8.75 10.9216 10.21 9.46161 12 9.46161C13.79 9.46161 15.25 10.9216 15.25 12.7116C15.25 14.5016 13.79 15.9616 12 15.9616Z" fill="#A1A1A1"/>
</svg>
