<svg width="20" height="21" viewBox="0 0 20 21" fill="none" xmlns="http://www.w3.org/2000/svg">
<path d="M18.3335 5.62842H13.3335" stroke="#717171" stroke-width="1.5" stroke-miterlimit="10" stroke-linecap="round" stroke-linejoin="round"/>
<path d="M4.99984 5.62842H1.6665" stroke="#717171" stroke-width="1.5" stroke-miterlimit="10" stroke-linecap="round" stroke-linejoin="round"/>
<path d="M8.33317 8.545C9.944 8.545 11.2498 7.23917 11.2498 5.62834C11.2498 4.01751 9.944 2.71167 8.33317 2.71167C6.72234 2.71167 5.4165 4.01751 5.4165 5.62834C5.4165 7.23917 6.72234 8.545 8.33317 8.545Z" stroke="#717171" stroke-width="1.5" stroke-miterlimit="10" stroke-linecap="round" stroke-linejoin="round"/>
<path d="M18.3333 14.7949H15" stroke="#717171" stroke-width="1.5" stroke-miterlimit="10" stroke-linecap="round" stroke-linejoin="round"/>
<path d="M6.6665 14.7949H1.6665" stroke="#717171" stroke-width="1.5" stroke-miterlimit="10" stroke-linecap="round" stroke-linejoin="round"/>
<path d="M11.6667 17.7118C13.2775 17.7118 14.5833 16.4059 14.5833 14.7951C14.5833 13.1843 13.2775 11.8784 11.6667 11.8784C10.0558 11.8784 8.75 13.1843 8.75 14.7951C8.75 16.4059 10.0558 17.7118 11.6667 17.7118Z" stroke="#717171" stroke-width="1.5" stroke-miterlimit="10" stroke-linecap="round" stroke-linejoin="round"/>
</svg>
