<svg width="20" height="21" viewBox="0 0 20 21" fill="none" xmlns="http://www.w3.org/2000/svg">
<path d="M2.5 7.8033V12.6116C2.5 14.3783 2.5 14.3783 4.16667 15.5033L8.75 18.1533C9.44167 18.5533 10.5667 18.5533 11.25 18.1533L15.8333 15.5033C17.5 14.3783 17.5 14.3783 17.5 12.62V7.8033C17.5 6.04497 17.5 6.04497 15.8333 4.91997L11.25 2.26997C10.5667 1.86997 9.44167 1.86997 8.75 2.26997L4.16667 4.91997C2.5 6.04497 2.5 6.04497 2.5 7.8033Z" stroke="#717171" stroke-width="1.5" stroke-linecap="round" stroke-linejoin="round"/>
<path d="M10 12.7117C11.3807 12.7117 12.5 11.5924 12.5 10.2117C12.5 8.83096 11.3807 7.71167 10 7.71167C8.61929 7.71167 7.5 8.83096 7.5 10.2117C7.5 11.5924 8.61929 12.7117 10 12.7117Z" stroke="#717171" stroke-width="1.5" stroke-linecap="round" stroke-linejoin="round"/>
</svg>
